<?xml version="1.0" encoding="utf-8"?>
<!-- Generator: Adobe Illustrator 18.0.0, SVG Export Plug-In . SVG Version: 6.00 Build 0)  -->
<!DOCTYPE svg PUBLIC "-//W3C//DTD SVG 1.1//EN" "http://www.w3.org/Graphics/SVG/1.1/DTD/svg11.dtd">
<svg version="1.1" id="Layer_1" xmlns="http://www.w3.org/2000/svg" xmlns:xlink="http://www.w3.org/1999/xlink" x="0px" y="0px"
	 viewBox="0 0 324 92" enable-background="new 0 0 324 92" xml:space="preserve">
<g>
	<path fill="#545456" d="M48.5,40c0,6.4,2.5,8.5,9.2,8.5c5.4,0,10-0.9,11.4-1.2c0.8-0.1,1.1,0.3,1.1,1.1v4.1c0,0.6-0.3,0.9-0.8,1.1
		c-2.4,0.6-8.5,1.3-13.2,1.3c-12.9,0-15.9-5.2-15.9-14.9V32c0-9,3.7-13.9,16.6-13.9c0.7,0,1.6,0,2.5,0.1c-1.4-1.3-2.3-3.2-2.3-6.4
		c0-8.4,6.1-11.6,15.1-11.6c10.4,0,17.1,4,17.1,17.5v4c3.2-1.7,8-3.5,13.4-3.5c5,0,9.3,1.6,9.3,10v18.1c0,2,0.6,2.5,1.9,2.5
		c0.5,0,0.8,0,1.5-0.1c0.6-0.1,0.9,0,0.9,0.8v3.7c0,0.6-0.2,0.8-0.8,1c-0.8,0.3-2.7,0.5-5.1,0.5c-5.9,0-7-3.4-7-7.5V29.8
		c0-4.2-2.1-5.1-4.6-5.1c-2.7,0-6.1,1-9.6,2.7v18.7c0,1.6,0.2,2.1,1.9,2.3l2,0.1c0.6,0.1,0.7,0.3,0.7,0.8v4c0,0.5-0.2,0.8-0.8,0.8
		H76.8c-0.6,0-0.8-0.2-0.8-0.8v-4c0-0.6,0.2-0.7,0.7-0.8l2-0.2c1.5-0.2,1.8-0.6,1.8-2.2V18.1c0-8.5-2.7-11.7-8.9-11.7
		c-5.1,0-7.5,2.5-7.5,6.7c0,3,1.2,4.8,3.4,5.7l0.9,0.1c0.8,0.2,0.8,0.6,0.8,1.1l-0.6,10c-0.1,0.8-0.4,0.9-1.1,0.9h-3.3
		c-0.6,0-0.8-0.3-0.9-0.9l-1.1-5.5c-1.5-0.2-3.8-0.4-6-0.4c-5.8,0-7.9,3.5-7.9,7.8V40z"/>
	<path fill="#545456" d="M151.5,46.3c0,2,0.6,2.5,1.8,2.5c0.5,0,0.8,0,1.6-0.1c0.6-0.1,0.9,0,0.9,0.8v3.7c0,0.6-0.2,0.8-0.8,1
		c-0.9,0.3-2.7,0.5-5.1,0.5c-3.1,0-4.9-0.9-5.8-2.4c-2.4,1.2-6.5,2.5-11.5,2.5c-10.6,0-12-4.8-12-10.2v-1.4
		c0-5.6,1.6-10.3,13.4-10.3c3.7,0,7,0.2,9.1,0.4v-3.6c0-4.6-1.2-5.9-6.6-5.9c-2.4,0-5.1,0.1-6.8,0.4l-1.1,5.2c-0.1,0.8-0.3,1-0.9,1
		H124c-0.6,0-0.8-0.2-0.9-1l-0.5-8.5c-0.1-1.2-0.1-1.6,0.7-1.9c1.4-0.4,8-0.8,13.2-0.8c9.4,0,15,1.2,15,11.8V46.3z M129,44.7
		c0,3.4,2,4.2,5.7,4.2c2.9,0,5.1-0.6,8.3-1.9v-8c-3.1-0.1-5.4-0.2-8-0.2c-4.3,0-6,1.3-6,4.3V44.7z"/>
	<path fill="#545456" d="M191.7,46.3c0,2,0.6,2.5,1.9,2.5c0.5,0,0.8,0,1.5-0.1c0.6-0.1,0.9,0,0.9,0.8v3.7c0,0.6-0.2,0.8-0.8,1
		c-0.8,0.3-2.7,0.5-5.1,0.5c-3,0-4.8-0.8-5.8-2.3c-2.3,1.1-6.7,2.3-11.6,2.3c-10.2,0-13.2-4.4-13.2-13.9v-8.8c0-9.6,3-14,13.2-14
		c4.3,0,8.2,1.1,10.4,2V9c0-1.9-0.3-2.1-1.8-2.3l-1.4-0.2c-0.8-0.1-0.9-0.4-0.9-1.1V2.5c0-0.7,0.2-0.9,0.9-1l5.5-0.9
		c2-0.4,3.4-0.6,4.4-0.6c1.3,0,1.8,0.8,1.8,1.7V46.3z M183.3,26c-2-0.9-4.4-1.8-7.7-1.8c-5.1,0-7.4,1.3-7.4,7.8v9
		c0,6,2.3,7.7,7.4,7.7c3,0,5.7-0.8,7.7-1.7V26z"/>
	<path fill="#545456" d="M208.4,39.8V40c0,5.8,0.9,8.5,9.8,8.5c5.4,0,9.6-0.8,12.5-1.3c1.2-0.2,1.4-0.1,1.4,1v3.8
		c0,1.2-0.2,1.3-1.3,1.5c-2.1,0.4-8.4,1.3-14.4,1.3c-13,0-16.3-4.2-16.3-14.9v-7.5c0-12.1,6.3-14.3,16.6-14.3c9.9,0,15,1.9,15,11
		c0,9.2-4.8,10.7-16,10.7H208.4z M208.4,34.2h7c6.8,0,8-0.8,8-4.8c0-3.9-1.3-5.6-7-5.6c-6.1,0-7.9,1.8-7.9,8.3V34.2z"/>
	<path fill="#545456" d="M258,53.3c-0.3,0.6-0.5,0.8-1.1,0.8h-6.3c-0.6,0-0.8-0.2-1.1-0.8l-10.7-26.8c-0.6-1.3-0.8-1.6-1.8-1.8
		l-1.9-0.2c-0.4-0.1-0.6-0.4-0.6-0.8v-4.1c0-0.4,0.2-0.7,0.6-0.7h14.8c0.6,0,0.7,0.2,0.7,0.7v4c0,0.4-0.2,0.7-0.6,0.7l-1.2,0.2
		c-1.6,0.1-1.8,0.4-1.1,2l7.2,19l7.3-18.8c0.6-1.8,0.4-1.9-1.2-2l-1.3-0.2c-0.4,0-0.6-0.3-0.6-0.7v-3.9c0-0.8,0.1-0.9,0.8-0.9h12.1
		c0.5,0,0.7,0.3,0.7,0.7v4.1c0,0.4-0.2,0.8-0.6,0.8l-1.9,0.2c-1,0.1-1.2,0.4-1.6,1.5L258,53.3z"/>
	<path fill="#15A8DB" d="M34.2,22.8v-3.9c0-0.3-0.2-0.6-0.4-0.7c-0.1-0.1-0.3-0.1-0.5-0.1c-0.1,0-0.2,0-0.4,0.1L0.5,33.6
		C0.2,33.7,0,34.1,0,34.4v3.4c0,0.3,0.2,0.7,0.5,0.8L33,54.9c0.1,0.1,0.2,0.1,0.4,0.1c0.2,0,0.3,0,0.5-0.1c0.3-0.2,0.4-0.4,0.4-0.7
		v-3.9c0-0.3-0.2-0.7-0.5-0.8L7,36.1l26.7-12.5C34,23.5,34.2,23.2,34.2,22.8z"/>
	<path fill="#15A8DB" d="M323.5,33.6L291,18.1c-0.1-0.1-0.2-0.1-0.4-0.1c-0.2,0-0.3,0-0.5,0.1c-0.2,0.2-0.4,0.4-0.4,0.7v3.9
		c0,0.3,0.2,0.7,0.5,0.8L317,36.1l-26.7,13.3c-0.3,0.1-0.5,0.5-0.5,0.8v3.9c0,0.3,0.2,0.6,0.4,0.7c0.1,0.1,0.3,0.1,0.5,0.1
		c0.1,0,0.3,0,0.4-0.1l32.5-16.3c0.3-0.1,0.5-0.5,0.5-0.8v-3.4C324,34.1,323.8,33.7,323.5,33.6z"/>
	<path fill="#15A8DB" d="M290.5,0.4c-0.2-0.2-0.4-0.4-0.7-0.4h-3.3c-0.4,0-0.7,0.3-0.8,0.6l-17.3,59.9c-0.1,0.3,0,0.5,0.1,0.8
		c0.2,0.2,0.4,0.4,0.7,0.4h3.3c0.4,0,0.7-0.3,0.8-0.6l17.3-59.9C290.8,0.9,290.7,0.6,290.5,0.4z"/>
</g>
<g>
	<path fill="#15A8DB" d="M178.8,75.4v7.2h7.2v1.7h-7.2v7.2h-1.7v-7.2h-7.2v-1.7h7.2v-7.2H178.8z"/>
	<path fill="#545456" d="M195.2,68.7v21H208v1.9h-15V68.7H195.2z"/>
	<path fill="#545456" d="M221,91.6v-3H221c-0.5,1.1-1.3,2-2.3,2.5c-1,0.6-2.1,0.9-3.4,0.9c-1,0-1.9-0.1-2.7-0.4
		c-0.7-0.3-1.3-0.7-1.8-1.2c-0.5-0.5-0.8-1.2-1-2c-0.2-0.8-0.3-1.6-0.3-2.6V75h2v10.8c0,1.5,0.4,2.6,1,3.4c0.7,0.8,1.8,1.2,3.4,1.2
		c0.9,0,1.6-0.2,2.2-0.6c0.6-0.4,1.1-0.9,1.5-1.5c0.4-0.6,0.7-1.3,0.9-2.1c0.2-0.8,0.3-1.6,0.3-2.5V75h2v16.5H221z"/>
	<path fill="#545456" d="M228.5,75v2.9h0.1c0.4-1,1.1-1.8,2-2.4c1-0.6,2.1-0.9,3.2-0.9c1.2,0,2.1,0.1,2.9,0.4
		c0.8,0.3,1.4,0.7,1.9,1.3c0.5,0.5,0.8,1.2,1,2c0.2,0.8,0.3,1.7,0.3,2.7v10.6h-2V81.2c0-0.7-0.1-1.4-0.2-2c-0.1-0.6-0.4-1.1-0.7-1.6
		c-0.3-0.4-0.8-0.8-1.3-1.1c-0.5-0.3-1.2-0.4-2-0.4s-1.5,0.1-2.2,0.4s-1.2,0.7-1.6,1.2c-0.4,0.5-0.8,1.1-1,1.8
		c-0.2,0.7-0.4,1.4-0.4,2.3v9.7h-2V75H228.5z"/>
	<path fill="#545456" d="M253.6,77.3c-0.7-0.7-1.8-1.1-3.1-1.1c-1,0-1.8,0.2-2.5,0.6c-0.7,0.4-1.3,0.9-1.8,1.6
		c-0.5,0.7-0.8,1.4-1.1,2.3c-0.2,0.8-0.4,1.7-0.4,2.6c0,0.9,0.1,1.7,0.4,2.6c0.2,0.8,0.6,1.6,1.1,2.3c0.5,0.7,1.1,1.2,1.8,1.6
		c0.7,0.4,1.6,0.6,2.5,0.6c0.6,0,1.2-0.1,1.8-0.4c0.6-0.2,1-0.6,1.5-1c0.4-0.4,0.8-0.9,1.1-1.5c0.3-0.6,0.4-1.2,0.5-1.9h2
		c-0.3,2-1,3.6-2.2,4.7c-1.2,1.1-2.7,1.7-4.6,1.7c-1.3,0-2.4-0.2-3.3-0.7c-1-0.5-1.8-1.1-2.4-1.9c-0.7-0.8-1.2-1.7-1.5-2.8
		c-0.3-1.1-0.5-2.2-0.5-3.4c0-1.2,0.2-2.3,0.5-3.4c0.3-1.1,0.8-2,1.5-2.8c0.7-0.8,1.5-1.4,2.4-1.9c1-0.5,2.1-0.7,3.3-0.7
		c1.8,0,3.3,0.5,4.5,1.4c1.2,0.9,2,2.4,2.2,4.3h-2C254.8,79,254.3,78,253.6,77.3z"/>
	<path fill="#545456" d="M261.9,68.7v9.2h0.1c0.4-1,1.1-1.8,2-2.4c1-0.6,2.1-0.9,3.2-0.9c1.2,0,2.1,0.1,2.9,0.4
		c0.8,0.3,1.4,0.7,1.9,1.3c0.5,0.5,0.8,1.2,1,2c0.2,0.8,0.3,1.7,0.3,2.7v10.6h-2V81.2c0-0.7-0.1-1.4-0.2-2c-0.1-0.6-0.4-1.1-0.7-1.6
		c-0.3-0.4-0.8-0.8-1.3-1.1c-0.5-0.3-1.2-0.4-2-0.4s-1.5,0.1-2.2,0.4s-1.2,0.7-1.6,1.2c-0.4,0.5-0.8,1.1-1,1.8
		c-0.2,0.7-0.4,1.4-0.4,2.3v9.7h-2V68.7H261.9z"/>
</g>
<g>
</g>
<g>
</g>
<g>
</g>
<g>
</g>
<g>
</g>
<g>
</g>
</svg>
