<svg xmlns="http://www.w3.org/2000/svg" width="250" height="48"><g fill="none" fill-rule="evenodd"><path fill="#535456" d="M37.408 30.8c0 4.944 1.9 6.573 7.06 6.573 4.13 0 7.714-.705 8.801-.923.597-.109.814.217.814.815v3.15c0 .434-.218.706-.65.814-1.849.435-6.574.978-10.213.978-9.941 0-12.277-3.966-12.277-11.462V24.66c0-6.898 2.878-10.7 12.82-10.7.543 0 1.195 0 1.9.053-1.087-.978-1.739-2.5-1.739-4.943 0-6.463 4.726-8.962 11.68-8.962 8.04 0 13.2 3.041 13.2 13.47v3.097c2.443-1.304 6.192-2.716 10.375-2.716 3.856 0 7.17 1.195 7.17 7.714v13.96c0 1.575.488 1.955 1.466 1.955.38 0 .597 0 1.195-.108.488-.055.706 0 .706.65v2.88c0 .434-.163.598-.598.76-.651.218-2.118.38-3.911.38-4.562 0-5.377-2.606-5.377-5.757V22.98c0-3.205-1.63-3.91-3.584-3.91-2.065 0-4.727.76-7.442 2.063v14.395c0 1.195.163 1.63 1.465 1.739l1.522.108c.488.054.543.217.543.652v3.042c0 .38-.163.597-.597.597H59.244c-.435 0-.653-.163-.653-.597v-3.042c0-.435.163-.542.543-.597l1.575-.163c1.196-.164 1.413-.49 1.413-1.684v-21.62c0-6.518-2.118-9.018-6.899-9.018-3.964 0-5.758 1.956-5.758 5.161 0 2.335.924 3.694 2.662 4.4l.706.109c.598.163.598.434.598.814l-.435 7.713c-.055.598-.326.706-.815.706h-2.553c-.434 0-.597-.217-.705-.706l-.815-4.236c-1.195-.164-2.934-.272-4.618-.272-4.454 0-6.082 2.661-6.082 5.975V30.8z"/><path fill="#535456" fill-rule="nonzero" d="M116.878 35.635c0 1.575.49 1.955 1.414 1.955.38 0 .597 0 1.249-.108.434-.055.706 0 .706.65v2.88c0 .434-.164.597-.598.76-.705.218-2.118.38-3.911.38-2.39 0-3.747-.705-4.508-1.846-1.847.923-4.997 1.901-8.909 1.901-8.148 0-9.288-3.693-9.288-7.822V33.3c0-4.292 1.248-7.93 10.32-7.93 2.88 0 5.433.162 7.008.325v-2.771c0-3.532-.923-4.563-5.107-4.563-1.847 0-3.965.054-5.269.271l-.869 4.02c-.107.597-.217.76-.705.76h-2.77c-.488 0-.651-.163-.706-.76l-.38-6.573c-.055-.923-.109-1.249.542-1.467 1.087-.325 6.193-.652 10.213-.652 7.226 0 11.57.924 11.57 9.072v12.604h-.002zm-17.327-1.194c0 2.607 1.52 3.259 4.399 3.259 2.229 0 3.967-.434 6.411-1.467v-6.138c-2.39-.109-4.128-.164-6.193-.164-3.315 0-4.617 1.033-4.617 3.314v1.196zm48.39 1.194c0 1.575.488 1.955 1.465 1.955.38 0 .597 0 1.196-.108.488-.055.704 0 .704.65v2.88c0 .434-.162.597-.597.76-.65.218-2.119.38-3.911.38-2.334 0-3.694-.651-4.454-1.737-1.793.869-5.16 1.792-8.964 1.792-7.875 0-10.212-3.368-10.212-10.7v-6.79c0-7.388 2.336-10.756 10.212-10.756 3.314 0 6.302.869 8.04 1.575V6.955c0-1.467-.217-1.63-1.411-1.793L138.922 5c-.597-.108-.707-.27-.707-.869V1.903c0-.544.163-.707.707-.76l4.237-.706c1.575-.271 2.608-.434 3.423-.434 1.03 0 1.357.597 1.357 1.303v34.33h.002zm-6.52-15.589c-1.522-.707-3.422-1.358-5.921-1.358-3.964 0-5.701.978-5.701 5.975v6.899c0 4.618 1.737 5.922 5.701 5.922 2.281 0 4.4-.652 5.921-1.304V20.046zm19.394 10.592v.163c0 4.455.705 6.573 7.55 6.573 4.128 0 7.388-.597 9.668-.977.924-.163 1.088-.054 1.088.76v2.933c0 .924-.164 1.032-1.032 1.14-1.63.326-6.519.978-11.135.978-9.996 0-12.602-3.205-12.602-11.461v-5.812c0-9.288 4.888-10.973 12.818-10.973 7.66 0 11.57 1.466 11.57 8.474 0 7.061-3.692 8.202-12.33 8.202h-5.595zm0-4.29h5.378c5.268 0 6.137-.652 6.137-3.694 0-2.988-1.032-4.291-5.432-4.291-4.672 0-6.084 1.357-6.084 6.355v1.63h.001z"/><path fill="#535456" d="M199.056 41.014c-.217.489-.38.652-.815.652h-4.834c-.434 0-.652-.163-.814-.652l-8.256-20.642c-.435-1.032-.652-1.249-1.359-1.357l-1.466-.163c-.326-.054-.435-.326-.435-.652v-3.151c0-.326.163-.543.489-.543h11.408c.489 0 .542.163.542.543v3.042c0 .326-.163.543-.488.543l-.922.163c-1.248.108-1.358.272-.869 1.575l5.54 14.612 5.65-14.504c.489-1.358.326-1.466-.924-1.575l-.978-.163c-.325 0-.434-.217-.434-.543V15.21c0-.597.054-.706.652-.706h9.343c.38 0 .543.217.543.543v3.15c0 .326-.163.598-.488.653l-1.467.163c-.76.108-.922.325-1.249 1.14l-8.369 20.86z"/><path fill="#15A8DB" d="M26.422 17.56v-2.98a.68.68 0 0 0-.961-.617L.403 25.873a.68.68 0 0 0-.403.62v2.589a.68.68 0 0 0 .385.612l25.068 12.554a.676.676 0 0 0 .652-.04.676.676 0 0 0 .316-.574v-2.977a.681.681 0 0 0-.386-.613L5.433 27.824l20.584-9.64a.682.682 0 0 0 .405-.623zm223.167 8.316l-25.068-11.914a.689.689 0 0 0-.648.05.679.679 0 0 0-.309.57v2.98c0 .269.16.513.4.62l20.59 9.643-20.598 10.218a.682.682 0 0 0-.392.615v2.977a.677.677 0 0 0 .68.678c.099 0 .199-.021.294-.066l25.058-12.55a.682.682 0 0 0 .39-.615v-2.589a.676.676 0 0 0-.397-.617zM224.173.27A.676.676 0 0 0 223.63 0h-2.574a.682.682 0 0 0-.652.492L207.053 46.63a.679.679 0 0 0 .654.864h2.572c.302 0 .57-.202.653-.492L224.285.864a.684.684 0 0 0-.112-.593z"/></g></svg>